<svg xmlns="http://www.w3.org/2000/svg" xmlns:svg="http://www.w3.org/2000/svg" id="svg8982" width="2367.604" height="1059.814" version="1.1" viewBox="0 0 626.429 280.409"><defs id="defs8976"><marker id="marker14935" orient="auto" overflow="visible" refX="0" refY="0"><path id="path10444" fill="#000" fill-opacity="1" fill-rule="evenodd" stroke="#000" stroke-opacity="1" stroke-width="1pt" d="M 0.0,0.0 L 5.0,-5.0 L -12.5,0.0 L 5.0,5.0 L 0.0,0.0 z" transform="scale(0.8) translate(12.5,0)"/></marker><marker id="marker11272" orient="auto" overflow="visible" refX="0" refY="0"><path id="path11270" fill="#000" fill-opacity="1" fill-rule="evenodd" stroke="#000" stroke-opacity="1" stroke-width="1pt" d="M 0.0,0.0 L 5.0,-5.0 L -12.5,0.0 L 5.0,5.0 L 0.0,0.0 z" transform="scale(0.8) rotate(180) translate(12.5,0)"/></marker><marker id="marker11196" orient="auto" overflow="visible" refX="0" refY="0"><path id="path11194" fill="#000" fill-opacity="1" fill-rule="evenodd" stroke="#000" stroke-opacity="1" stroke-width="1.333" d="M 0,0 5,-5 -12.5,0 5,5 Z" transform="matrix(0.8,0,0,0.8,10,0)"/></marker><marker id="marker11104" orient="auto" overflow="visible" refX="0" refY="0"><path id="path11102" fill="#000" fill-opacity="1" fill-rule="evenodd" stroke="#000" stroke-opacity="1" stroke-width="1pt" d="M 0.0,0.0 L 5.0,-5.0 L -12.5,0.0 L 5.0,5.0 L 0.0,0.0 z" transform="scale(0.8) rotate(180) translate(12.5,0)"/></marker><marker id="marker11022" orient="auto" overflow="visible" refX="0" refY="0"><path id="path11020" fill="#000" fill-opacity="1" fill-rule="evenodd" stroke="#000" stroke-opacity="1" stroke-width="1pt" d="M 0.0,0.0 L 5.0,-5.0 L -12.5,0.0 L 5.0,5.0 L 0.0,0.0 z" transform="scale(0.8) rotate(180) translate(12.5,0)"/></marker><marker id="marker10934" orient="auto" overflow="visible" refX="0" refY="0"><path id="path10932" fill="#000" fill-opacity="1" fill-rule="evenodd" stroke="#000" stroke-opacity="1" stroke-width="1pt" d="M 0.0,0.0 L 5.0,-5.0 L -12.5,0.0 L 5.0,5.0 L 0.0,0.0 z" transform="scale(0.8) rotate(180) translate(12.5,0)"/></marker><marker id="Arrow1Lend" orient="auto" overflow="visible" refX="0" refY="0"><path id="path10447" fill="#000" fill-opacity="1" fill-rule="evenodd" stroke="#000" stroke-opacity="1" stroke-width="1pt" d="M 0.0,0.0 L 5.0,-5.0 L -12.5,0.0 L 5.0,5.0 L 0.0,0.0 z" transform="scale(0.8) rotate(180) translate(12.5,0)"/></marker><marker id="Arrow1Lstart" orient="auto" overflow="visible" refX="0" refY="0"><path id="path10124" fill="#000" fill-opacity="1" fill-rule="evenodd" stroke="#000" stroke-opacity="1" stroke-width="1.333" d="M 0,0 5,-5 -12.5,0 5,5 Z" transform="matrix(0.8,0,0,0.8,10,0)"/></marker><marker id="marker10837" orient="auto" overflow="visible" refX="0" refY="0"><path id="path10835" fill="#000" fill-opacity="1" fill-rule="evenodd" stroke="#000" stroke-opacity="1" stroke-width="1.333" d="M 0,0 5,-5 -12.5,0 5,5 Z" transform="matrix(-0.8,0,0,-0.8,-10,0)"/></marker><marker id="Arrow2Sstart" orient="auto" overflow="visible" refX="0" refY="0"><path id="path10154" fill="#000" fill-opacity="1" fill-rule="evenodd" stroke="#000" stroke-linejoin="round" stroke-opacity="1" stroke-width=".625" d="M 8.7185878,4.0337352 -2.2072895,0.01601326 8.7185884,-4.0017078 c -1.7454984,2.3720609 -1.7354408,5.6174519 -6e-7,8.035443 z" transform="matrix(0.3,0,0,0.3,-0.69,0)"/></marker><marker id="marker10638" orient="auto" overflow="visible" refX="0" refY="0"><path id="path10636" fill="#000" fill-opacity="1" fill-rule="evenodd" stroke="#000" stroke-opacity="1" stroke-width="1.333" d="M 0,0 5,-5 -12.5,0 5,5 Z" transform="matrix(-0.8,0,0,-0.8,-10,0)"/></marker><marker id="marker11272-0" orient="auto" overflow="visible" refX="0" refY="0"><path id="path11270-2" fill="#000" fill-opacity="1" fill-rule="evenodd" stroke="#000" stroke-opacity="1" stroke-width="1.333" d="M 0,0 5,-5 -12.5,0 5,5 Z" transform="matrix(-0.8,0,0,-0.8,-10,0)"/></marker><marker id="marker11272-0-5" orient="auto" overflow="visible" refX="0" refY="0"><path id="path11270-2-7" fill="#000" fill-opacity="1" fill-rule="evenodd" stroke="#000" stroke-opacity="1" stroke-width="1.333" d="M 0,0 5,-5 -12.5,0 5,5 Z" transform="matrix(-0.8,0,0,-0.8,-10,0)"/></marker><marker id="Arrow1Lend-6" orient="auto" overflow="visible" refX="0" refY="0"><path id="path10447-0" fill="#000" fill-opacity="1" fill-rule="evenodd" stroke="#000" stroke-opacity="1" stroke-width="1.333" d="M 0,0 5,-5 -12.5,0 5,5 Z" transform="matrix(-0.8,0,0,-0.8,-10,0)"/></marker><marker id="marker11104-4" orient="auto" overflow="visible" refX="0" refY="0"><path id="path11102-7" fill="#000" fill-opacity="1" fill-rule="evenodd" stroke="#000" stroke-opacity="1" stroke-width="1.333" d="M 0,0 5,-5 -12.5,0 5,5 Z" transform="matrix(-0.8,0,0,-0.8,-10,0)"/></marker></defs><metadata id="metadata8979"/><g id="layer1" transform="translate(303.1369,-21.626629)"><flowRoot font-style="normal" style="line-height:1.25" id="flowRoot8984" fill="#000" fill-opacity="1" stroke="none" font-family="sans-serif" font-size="40" font-weight="normal" letter-spacing="0" word-spacing="0" xml:space="preserve"><flowRegion id="flowRegion8986"><rect id="rect8988" width="1214.286" height="125.714" x="-1100" y="73.948"/></flowRegion><flowPara id="flowPara8990"/></flowRoot><text id="text9002" x="-232.077" y="32.417" fill="#000" fill-opacity="1" stroke="none" stroke-width=".265" font-family="sans-serif" font-size="14.111" font-style="normal" font-weight="normal" letter-spacing="0" word-spacing="0" xml:space="preserve" style="line-height:1.25"><tspan id="tspan9000" x="-232.077" y="32.417" stroke-width=".265"><tspan id="tspan9004" fill="#00f" font-family="sans-serif" font-stretch="normal" font-style="normal" font-variant="normal" font-weight="normal" style="-inkscape-font-specification:sans-serif">SUSI Smart Speaker - IOS/Android Workflow</tspan></tspan></text><rect id="rect9829" width="3.024" height="8.315" x="-235.857" y="43" fill="#00f" fill-opacity="0" stroke-width=".265"/><rect id="rect9831" width="17.387" height="8.315" x="-201.083" y="67.946" fill="#00f" fill-opacity="0" stroke-width=".265"/><rect id="rect9833" width="15.119" height="25.702" x="-216.202" y="76.262" fill="#00f" fill-opacity="0" stroke-width=".265"/><rect id="rect9835" width="61.232" height="45.357" x="-232.833" y="43" fill="#00f" fill-opacity="0" stroke-width=".265"/><rect id="rect9840" width="393.851" height="219.982" x="-213.179" y="52.827" fill="#00f" fill-opacity="0" stroke-width=".265"/><rect id="rect9844" width="483.91" height="223.006" x="-232.833" y="43" fill="#000" fill-opacity="0" stroke-width=".265" rx="1" ry=".9"/><flowRoot id="flowRoot9850" fill="#000" fill-opacity="1" stroke="none" font-family="sans-serif" font-size="53.333" font-style="normal" font-weight="normal" letter-spacing="0" transform="scale(0.26458333)" word-spacing="0" xml:space="preserve" style="line-height:1.25"><flowRegion id="flowRegion9852"><rect id="rect9854" width="1280" height="840" x="-891.429" y="193.948"/></flowRegion><flowPara id="flowPara9856"/></flowRoot><flowRoot font-style="normal" style="line-height:1.25" id="flowRoot9862" fill="#000" fill-opacity="1" stroke="none" font-family="sans-serif" font-size="53.333" font-weight="normal" letter-spacing="0" word-spacing="0" xml:space="preserve"><flowRegion id="flowRegion9864" fill="#000"><rect id="rect9866" width="1562.857" height="868.571" x="-880" y="162.52" fill="#000"/></flowRegion><flowPara id="flowPara9868"/></flowRoot><rect id="rect9886" width="52.161" height="3.024" x="-303.137" y="48.292" fill="#000" fill-opacity="0" stroke-dasharray="none" stroke-miterlimit="4" stroke-width="1" rx="1" ry="1.1"/><rect id="rect9893" width="558.649" height="258.536" x="-235.857" y="43" fill="#000" fill-opacity="0" stroke="#3b0000" stroke-dasharray="none" stroke-miterlimit="4" stroke-opacity="1" stroke-width="1" rx="1" ry="1.1"/><rect id="rect9895" width="100.542" height="34.396" x="-223.006" y="52.827" fill="#000" fill-opacity="0" stroke="#3b0000" stroke-dasharray="none" stroke-miterlimit="4" stroke-opacity="1" stroke-width="1" rx="1" ry="1.1"/><rect id="rect9895-1" width="90.714" height="34.018" x="-99.731" y="54.73" fill="#000" fill-opacity="0" stroke="#3b0000" stroke-dasharray="none" stroke-miterlimit="4" stroke-opacity="1" stroke-width="1" rx="1" ry="1.1"/><rect id="rect9895-1-5" width="113.43" height="33.256" x="11.413" y="53.961" fill="#000" fill-opacity="0" stroke="#3b0000" stroke-dasharray="none" stroke-miterlimit="4" stroke-opacity="1" stroke-width="1" rx="1" ry="1.1"/><rect id="rect9895-1-3-4" width="90.714" height="34.018" x="158.303" y="53.974" fill="#000" fill-opacity="0" stroke="#3b0000" stroke-dasharray="none" stroke-miterlimit="4" stroke-opacity="1" stroke-width="1" rx="1" ry="1.1"/><flowRoot font-style="normal" style="line-height:1.25" id="flowRoot9977" fill="#000" fill-opacity="1" stroke="none" font-family="sans-serif" font-size="53.333" font-weight="normal" letter-spacing="0" word-spacing="0" xml:space="preserve"><flowRegion id="flowRegion9979"><rect id="rect9981" width="100" height="60" x="-694.286" y="228.234"/></flowRegion><flowPara id="flowPara9983"/></flowRoot><text id="text9995" x="-216.202" y="76.262" fill="#000" fill-opacity="1" stroke="none" stroke-width=".265" font-family="sans-serif" font-size="9.878" font-style="normal" font-weight="normal" letter-spacing="0" word-spacing="0" xml:space="preserve" style="line-height:1.25"><tspan id="tspan9993" x="-216.202" y="76.262" stroke-width=".265" font-size="14.111">Home Wifi</tspan></text><rect id="rect10006" width="3.78" height="2.268" x="-86.179" y="70.214" fill="#000" fill-opacity="0" stroke="#3b0000" stroke-dasharray="none" stroke-miterlimit="4" stroke-opacity="1" stroke-width=".265" rx="1" ry="1.1"/><text id="text10013" x="18.143" y="73.994" fill="#000" fill-opacity="1" stroke="none" stroke-width=".265" font-family="sans-serif" font-size="9.878" font-style="normal" font-weight="normal" letter-spacing="0" word-spacing="0" xml:space="preserve" style="line-height:1.25"><tspan id="tspan10011" x="18.143" y="73.994" stroke-width=".265" font-size="12.7">Smart Speaker</tspan></text><path id="path10764" fill="none" stroke="#000" stroke-linecap="butt" stroke-linejoin="miter" stroke-opacity="1" stroke-width=".265" d="m 226.33732,121.72193 c 0,0 0,0 0,0 z"/><path id="path11095" fill="none" stroke="#000" stroke-linecap="butt" stroke-linejoin="miter" stroke-opacity="1" stroke-width=".265" d="m 200.42665,251.27528 c 0,0 0,0 0,0"/><path id="path11099" fill="none" stroke="#000" stroke-dasharray="none" stroke-linecap="butt" stroke-linejoin="miter" stroke-miterlimit="4" stroke-opacity="1" stroke-width="1.265" d="m 200.42665,251.27528 c 0,0 0,0 0,0 z"/><text id="text1709" x="-86.179" y="70.214" fill="#000" fill-opacity="1" stroke="none" stroke-width=".265" font-family="sans-serif" font-size="6.35" font-style="normal" font-weight="normal" letter-spacing="0" word-spacing="0" xml:space="preserve" style="line-height:1.25"><tspan id="tspan1707" x="-86.179" y="70.214" stroke-width=".265" font-size="10.583">User&apos;s Phone</tspan><tspan id="tspan1711" x="-86.179" y="78.152" stroke-width=".265" font-size="10.583">IOS/ Android</tspan></text><text id="text2089" x="167.066" y="66.553" fill="#000" fill-opacity="1" stroke="none" stroke-width=".265" font-family="sans-serif" font-size="6.35" font-style="normal" font-weight="normal" letter-spacing="0" word-spacing="0" xml:space="preserve" style="line-height:1.25"><tspan id="tspan2087" x="167.066" y="66.553" stroke-width=".265" font-size="11.289">SUSI SERVER </tspan><tspan id="tspan2091" x="167.066" y="80.665" stroke-width=".265" font-size="11.289"> api.susi.ai</tspan></text><rect id="rect2191" width="124.408" height="34.206" x="21.32" y="100.935" fill="#fff" fill-opacity="1" stroke="#3b4bbc" stroke-dasharray="none" stroke-linecap="square" stroke-linejoin="miter" stroke-miterlimit="4" stroke-opacity="1" stroke-width="1.265" paint-order="markers stroke fill" rx="1" ry="1.1"/><text id="text2195" x="25.319" y="111.516" fill="#000" fill-opacity="1" stroke="none" stroke-width=".265" font-family="sans-serif" font-size="6.35" font-style="normal" font-weight="normal" letter-spacing="0" word-spacing="0" xml:space="preserve" style="line-height:1.25"><tspan id="tspan2193" x="25.319" y="111.516" stroke-width=".265" font-size="7.761">USER PUSHES BUTTON</tspan><tspan id="tspan2197" x="25.319" y="119.454" stroke-width=".265" font-size="7.761">DEVICE SWITCHES INTO WIFI</tspan><tspan id="tspan2199" x="25.319" y="127.391" stroke-width=".265" font-size="7.761">Host Mode</tspan></text><rect id="rect2212" width="129.742" height="30.483" x="35.799" y="149.62" fill="#fff" fill-opacity="1" stroke="#3b4bbc" stroke-dasharray="none" stroke-linecap="square" stroke-linejoin="miter" stroke-miterlimit="4" stroke-opacity="1" stroke-width="1.265" paint-order="markers stroke fill" rx="1" ry="1.1"/><text id="text2216" x="42.847" y="163.337" fill="#000" fill-opacity="1" stroke="none" stroke-width=".265" font-family="sans-serif" font-size="6.35" font-style="normal" font-weight="normal" letter-spacing="0" word-spacing="0" xml:space="preserve" style="line-height:1.25"><tspan id="tspan2214" x="42.847" y="163.337" stroke-width=".265" font-size="7.056">Device starts Mini-HTTPS to listen</tspan><tspan id="tspan2218" x="42.847" y="171.275" stroke-width=".265" font-size="7.056">to a Connection attempt</tspan></text><rect id="rect2191-3" width="125.268" height="48.348" x="-108.52" y="100.51" fill="#fff" fill-opacity="1" stroke="#3b4bbc" stroke-dasharray="none" stroke-linecap="square" stroke-linejoin="miter" stroke-miterlimit="4" stroke-opacity="1" stroke-width="1.265" paint-order="markers stroke fill" rx="1" ry="1.1"/><text id="text2245" x="-101.186" y="112.278" fill="#000" fill-opacity="1" stroke="none" stroke-width=".265" font-family="sans-serif" font-size="6.35" font-style="normal" font-weight="normal" letter-spacing="0" word-spacing="0" xml:space="preserve" style="line-height:1.25"><tspan id="tspan2243" x="-101.186" y="112.278" stroke-width=".265">ON THE APP THE USER CLICKS ON</tspan><tspan id="tspan2247" x="-101.186" y="120.216" stroke-width=".265">&quot;CONNECT DEVICE&quot;, APP SWITCHES</tspan><tspan id="tspan2249" x="-101.186" y="128.153" stroke-width=".265">OFF HOME WIFI and looks for SUSI</tspan><tspan id="tspan2251" x="-101.186" y="136.091" stroke-width=".265">DEVICE</tspan></text><rect id="rect2191-3-9" width="125.268" height="48.348" x="-106.664" y="158.215" fill="#fff" fill-opacity="1" stroke="#3b4bbc" stroke-dasharray="none" stroke-linecap="square" stroke-linejoin="miter" stroke-miterlimit="4" stroke-opacity="1" stroke-width="1.265" paint-order="markers stroke fill" rx="1" ry="1.1"/><text id="text2272" x="-94.327" y="174.769" fill="#000" fill-opacity="1" stroke="none" stroke-width=".265" font-family="sans-serif" font-size="6.35" font-style="normal" font-weight="normal" letter-spacing="0" word-spacing="0" xml:space="preserve" style="line-height:1.25"><tspan id="tspan2270" x="-94.327" y="174.769" stroke-width=".265">APP Finds SUSI HOTSPOT</tspan><tspan id="tspan2276" x="-94.327" y="182.706" stroke-width=".265"> + - local Wifi access</tspan><tspan id="tspan2280" x="-94.327" y="190.644" stroke-width=".265"> credentials</tspan><tspan id="tspan2282" x="-94.327" y="198.581" stroke-width=".265">APP Sends - SUSI USER AUTH</tspan></text><rect id="rect2191-3-9-9" width="119.933" height="31.482" x="36.607" y="203.322" fill="#fff" fill-opacity="1" stroke="#3b4bbc" stroke-dasharray="none" stroke-linecap="square" stroke-linejoin="miter" stroke-miterlimit="4" stroke-opacity="1" stroke-width="1.265" paint-order="markers stroke fill" rx="1" ry="1.1"/><text id="text7191" x="48.181" y="221.255" fill="#000" fill-opacity="1" stroke="none" stroke-width=".265" font-family="sans-serif" font-size="6.35" font-style="normal" font-weight="normal" letter-spacing="0" word-spacing="0" xml:space="preserve" style="line-height:1.25"><tspan id="tspan7189" x="48.181" y="221.255" stroke-width=".265">DEVICE switches OFF Hot-Spot</tspan><tspan id="tspan7193" x="48.181" y="229.193" stroke-width=".265">and Connects to Home -Wifi</tspan></text><rect id="rect2191-3-9-9-7" width="120.695" height="20.151" x="37.369" y="239.377" fill="#fff" fill-opacity="1" stroke="#3b4bbc" stroke-dasharray="none" stroke-linecap="square" stroke-linejoin="miter" stroke-miterlimit="4" stroke-opacity="1" stroke-width="1.265" paint-order="markers stroke fill" rx="1" ry="1.1"/><text id="text7212" x="51.992" y="248.69" fill="#000" fill-opacity="1" stroke="none" stroke-width=".265" font-family="sans-serif" font-size="6.35" font-style="normal" font-weight="normal" letter-spacing="0" word-spacing="0" xml:space="preserve" style="line-height:1.25"><tspan id="tspan7210" x="51.992" y="248.69" stroke-width=".265">DEVICE now has internet +</tspan><tspan id="tspan7214" x="51.992" y="256.628" stroke-width=".265">Connects to SUSI Server</tspan></text><rect id="rect2191-3-9-9-7-5" width="121.457" height="25.486" x="-98.281" y="253.856" fill="#fff" fill-opacity="1" stroke="#3b4bbc" stroke-dasharray="none" stroke-linecap="square" stroke-linejoin="miter" stroke-miterlimit="4" stroke-opacity="1" stroke-width="1.265" paint-order="markers stroke fill" rx="1" ry="1.1"/><rect id="rect2191-3-9-9-7-53" width="120.695" height="20.151" x="33.558" y="275.194" fill="#fff" fill-opacity="1" stroke="#3b4bbc" stroke-dasharray="none" stroke-linecap="square" stroke-linejoin="miter" stroke-miterlimit="4" stroke-opacity="1" stroke-width="1.265" paint-order="markers stroke fill" rx="1" ry="1.1"/><rect id="rect2191-3-9-9-7-0" width="100.119" height="26.068" x="201.249" y="246.742" fill="#fff" fill-opacity="1" stroke="#3b4bbc" stroke-dasharray="none" stroke-linecap="square" stroke-linejoin="miter" stroke-miterlimit="4" stroke-opacity="1" stroke-width="1.265" paint-order="markers stroke fill" rx="1" ry="1.1"/><text id="text7261" x="200.427" y="251.275" fill="#000" fill-opacity="1" stroke="none" stroke-width=".265" font-family="sans-serif" font-size="6.35" font-style="normal" font-weight="normal" letter-spacing="0" word-spacing="0" xml:space="preserve" style="line-height:1.25"><tspan id="tspan7269" x="200.427" y="259.213" stroke-width=".265">The Device is Registered + </tspan><tspan id="tspan7271" x="200.427" y="267.15" stroke-width=".265">Access granted</tspan></text><text id="text7275" x="50.468" y="285.27" fill="#000" fill-opacity="1" stroke="none" stroke-width=".265" font-family="sans-serif" font-size="6.35" font-style="normal" font-weight="normal" letter-spacing="0" word-spacing="0" xml:space="preserve" style="line-height:1.25"><tspan id="tspan7273" x="50.468" y="285.27" stroke-width=".265">The local Server is started &amp;</tspan><tspan id="tspan7277" x="50.468" y="293.207" stroke-width=".265">connects to api.susi.ai</tspan></text><text id="text7281" x="-93.565" y="267.742" fill="#000" fill-opacity="1" stroke="none" stroke-width=".265" font-family="sans-serif" font-size="5.292" font-style="normal" font-weight="normal" letter-spacing="0" word-spacing="0" xml:space="preserve" style="line-height:1.25"><tspan id="tspan7279" x="-93.565" y="267.742" stroke-width=".265" font-size="5.292">The APP waits for Confirmation </tspan><tspan id="tspan7285" x="-93.565" y="274.357" stroke-width=".265" font-size="5.292">from the Server that the device is cnnected</tspan></text><path id="path10230" fill="none" stroke="#000" stroke-dasharray="1 1" stroke-dashoffset="0" stroke-linecap="butt" stroke-linejoin="round" stroke-miterlimit="4" stroke-opacity="1" stroke-width=".5" d="m 17.698169,190.01017 c 26.16496,0.25403 52.329632,0.50806 78.494069,0.76208" opacity=".301"/><path id="path10238" fill="none" stroke="#000" stroke-dasharray="none" stroke-linecap="butt" stroke-linejoin="miter" stroke-miterlimit="4" stroke-opacity="1" stroke-width=".65" marker-start="url(#Arrow1Lstart)" d="m 17.698169,190.01017 c 26.16496,0.25403 52.329632,0.50806 78.494069,0.76208"/><path id="path10396" fill="none" stroke="#000" stroke-linecap="butt" stroke-linejoin="miter" stroke-opacity="1" stroke-width=".265" d="m 178.49673,-2.0336175 c 8.38298,3.5564147 16.76585,7.1127835 22.48148,7.2396587 5.71563,0.1268752 8.76399,-3.1755226 11.81204,-6.4775804"/><path id="path10400" fill="none" stroke="#000" stroke-linecap="butt" stroke-linejoin="miter" stroke-opacity="1" stroke-width=".265" d="m 212.79025,-1.271539 c -11.43094,-0.2540208 -22.8621,-0.5080466 -34.29352,-0.7620783"/><path id="path10878" fill="none" stroke="#000" stroke-dasharray="none" stroke-linecap="butt" stroke-linejoin="miter" stroke-miterlimit="4" stroke-opacity="1" stroke-width=".65" marker-end="url(#marker11104)" marker-mid="url(#Arrow1Lend)" d="m 158.06394,239.37663 c 22.56081,0.0562 45.12138,0.11243 67.68166,0.16865"/><path id="path11184" fill="none" stroke="#000" stroke-dasharray="none" stroke-linecap="butt" stroke-linejoin="miter" stroke-miterlimit="4" stroke-opacity="1" stroke-width=".65" marker-end="url(#marker11272)" d="m 35.080192,234.80417 c -25.7367937,-1.20808 -51.473685,-2.41617 -83.330207,-3.13465 -31.856521,-0.71849 -69.831945,-0.94735 -107.807845,-1.17621"/><path id="path11184-7" fill="none" stroke="#000" stroke-dasharray="none" stroke-linecap="butt" stroke-linejoin="miter" stroke-miterlimit="4" stroke-opacity="1" stroke-width=".65" marker-end="url(#marker11272-0)" d="m 34.246156,283.35516 c -56.366087,-0.18754 -112.732404,-0.37509 -144.140216,-0.33479 -31.40782,0.0403 -37.85715,0.30842 -44.30676,0.57657"/><rect id="rect11476" width="0" height="0" x="0" y="0" fill="#fff" fill-opacity="1" stroke="#3b4bbc" stroke-dasharray="none" stroke-dashoffset="0" stroke-linecap="square" stroke-linejoin="round" stroke-miterlimit="4" stroke-opacity="1" stroke-width="2.457" opacity=".301" paint-order="markers stroke fill" transform="matrix(0.26458333,0,0,0.26458333,-303.1369,21.626629)"/><rect id="rect11490" width="0" height="0" x="0" y="0" fill="#fff" fill-opacity="1" stroke="#3b4bbc" stroke-dasharray="none" stroke-dashoffset="0" stroke-linecap="square" stroke-linejoin="round" stroke-miterlimit="4" stroke-opacity="1" stroke-width="2.457" opacity=".301" paint-order="markers stroke fill" transform="matrix(0.26458333,0,0,0.26458333,-303.1369,21.626629)"/><path id="path11184-7-9" fill="none" stroke="#000" stroke-dasharray="none" stroke-linecap="butt" stroke-linejoin="miter" stroke-miterlimit="4" stroke-opacity="1" stroke-width=".65" marker-end="url(#marker11272-0-5)" marker-start="url(#marker14935)" d="m 202.38702,266.40374 c -52.68987,-0.18754 -105.379941,-0.37509 -134.73931,-0.33479 -29.359369,0.0403 -35.388069,0.30842 -41.417046,0.57657"/><path id="path10878-8" fill="none" stroke="#000" stroke-dasharray="none" stroke-linecap="butt" stroke-linejoin="miter" stroke-miterlimit="4" stroke-opacity="1" stroke-width=".65" marker-end="url(#marker11104-4)" marker-mid="url(#Arrow1Lend-6)" d="m 154.25357,295.34564 c 22.56081,0.0562 45.12138,0.11243 67.68166,0.16865"/></g></svg>